<svg width="90" height="90" viewBox="0 0 90 90" fill="none" xmlns="http://www.w3.org/2000/svg">
<g id="tray-plate-svgrepo-com 1" clip-path="url(#clip0_157_169)">
<g id="Group">
<g id="Group_2">
<g id="Group_3">
<path id="Vector" d="M67.4531 42.3164C66.6251 42.3164 65.9531 42.9884 65.9531 43.8164C65.9531 44.6444 66.6251 45.3164 67.4531 45.3164C70.4606 45.3164 72.9071 47.7599 72.9071 50.7629C72.9071 53.7704 70.4606 56.2169 67.4531 56.2169C66.6251 56.2169 65.9531 56.8889 65.9531 57.7169C65.9531 58.5449 66.6251 59.2169 67.4531 59.2169C72.1151 59.2169 75.9071 55.4249 75.9071 50.7629C75.9071 46.1054 72.1151 42.3164 67.4531 42.3164Z" fill="#E4250C"/>
<path id="Vector_2" d="M85.5 61.4998H79.875C82.3755 58.6138 83.91 54.8698 83.91 50.7598C83.91 41.6953 76.5285 34.3198 67.455 34.3198C58.3815 34.3198 51 41.6938 51 50.7598C51 54.8683 52.5315 58.6138 55.029 61.4998H49.5H9V55.6198C9 36.6253 24.531 21.1483 43.6185 21.1198C53.3355 21.1273 62.6385 25.2763 69.1425 32.5018C69.6975 33.1168 70.644 33.1678 71.2605 32.6128C71.877 32.0593 71.9265 31.1113 71.3715 30.4948C65.9715 24.4948 58.7955 20.4553 50.9985 18.8728V16.3048C50.9985 14.7133 50.373 13.2133 49.239 12.0778C48.105 10.9438 46.599 10.3198 45 10.3198C41.691 10.3198 39 13.0048 39 16.3048V18.4183C20.43 20.7223 6 36.5308 6 55.6198V61.4998H4.5C2.019 61.4998 0 63.5188 0 65.9998V71.9998C0 72.8278 0.672 73.4998 1.5 73.4998H57V85.4998C57 86.0533 57.3045 86.5618 57.792 86.8228C58.278 87.0838 58.869 87.0538 59.331 86.7478L67.5 81.3028L75.6675 86.7478C75.9195 86.9158 76.209 86.9998 76.5 86.9998C76.743 86.9998 76.986 86.9413 77.208 86.8228C77.6955 86.5618 78 86.0533 78 85.4998V73.4998H88.5C89.328 73.4998 90 72.8278 90 71.9998V65.9998C90 63.5188 87.981 61.4998 85.5 61.4998ZM42 16.3048C42 14.6578 43.3455 13.3198 45 13.3198C45.798 13.3198 46.551 13.6318 47.1195 14.2003C47.688 14.7673 48 15.5158 48 16.3048V17.9998H42V16.3048ZM57 70.4998H3V65.9998C3 65.1733 3.6735 64.4998 4.5 64.4998H7.5H49.5H57V70.4998ZM75 71.9998V82.6963L68.3325 78.2518C67.8285 77.9158 67.173 77.9158 66.669 78.2518L60 82.6963V71.9998V65.4103C61.821 66.3403 63.831 66.9463 65.9625 67.1398L66 72.0103C66.006 72.8353 66.6765 73.4998 67.5 73.4998C67.503 73.4998 67.5075 73.4998 67.5105 73.4998C68.3385 73.4938 69.006 72.8878 69 72.0598L68.9625 67.1398C71.1225 66.9418 73.1595 66.3223 75 65.3683V71.9998ZM67.455 64.2148C60.036 64.2148 54 58.1788 54 50.7598C54 43.3483 60.036 37.3198 67.455 37.3198C74.874 37.3198 80.91 43.3498 80.91 50.7598C80.91 58.1788 74.874 64.2148 67.455 64.2148ZM87 70.4998H78V64.4998H85.5C86.3265 64.4998 87 65.1733 87 65.9998V70.4998Z" fill="#E4250C"/>
<path id="Vector_3" d="M25.5 33C24.672 33 24 33.672 24 34.5C24 35.328 24.672 36 25.5 36H33C33.828 36 34.5 35.328 34.5 34.5C34.5 33.672 33.828 33 33 33H25.5Z" fill="#E4250C"/>
<path id="Vector_4" d="M38.7 33.03C38.61 33.045 38.52 33.075 38.43 33.12C38.34 33.15 38.25 33.195 38.175 33.255C38.085 33.315 38.01 33.375 37.935 33.435C37.665 33.72 37.5 34.11 37.5 34.5C37.5 34.905 37.665 35.28 37.935 35.565C38.22 35.835 38.61 36 39 36C39.195 36 39.39 35.955 39.57 35.88C39.75 35.805 39.915 35.7 40.065 35.565C40.125 35.49 40.2 35.415 40.245 35.34C40.305 35.25 40.35 35.16 40.38 35.07C40.425 34.98 40.455 34.89 40.47 34.8C40.485 34.695 40.5 34.605 40.5 34.5C40.5 34.11 40.335 33.72 40.065 33.435C39.915 33.3 39.75 33.195 39.57 33.12C39.3 33 39 32.97 38.7 33.03Z" fill="#E4250C"/>
<path id="Vector_5" d="M12 9.6C12.828 9.6 13.5 8.928 13.5 8.1V4.5C13.5 3.672 12.828 3 12 3C11.172 3 10.5 3.672 10.5 4.5V8.1C10.5 8.928 11.172 9.6 12 9.6Z" fill="#E4250C"/>
<path id="Vector_6" d="M12 23.9999C12.828 23.9999 13.5 23.3279 13.5 22.4999V18.8999C13.5 18.0719 12.828 17.3999 12 17.3999C11.172 17.3999 10.5 18.0719 10.5 18.8999V22.4999C10.5 23.3279 11.172 23.9999 12 23.9999Z" fill="#E4250C"/>
<path id="Vector_7" d="M15.9004 13.5C15.9004 14.328 16.5724 15 17.4004 15H21.0004C21.8284 15 22.5004 14.328 22.5004 13.5C22.5004 12.672 21.8284 12 21.0004 12H17.4004C16.5724 12 15.9004 12.672 15.9004 13.5Z" fill="#E4250C"/>
<path id="Vector_8" d="M3 15H6.6C7.428 15 8.1 14.328 8.1 13.5C8.1 12.672 7.428 12 6.6 12H3C2.172 12 1.5 12.672 1.5 13.5C1.5 14.328 2.172 15 3 15Z" fill="#E4250C"/>
<path id="Vector_9" d="M14.7582 16.2587C14.1717 16.8452 14.1717 17.7932 14.7582 18.3797L17.3037 20.9252C17.5962 21.2177 17.9802 21.3647 18.3642 21.3647C18.7482 21.3647 19.1322 21.2177 19.4247 20.9252C20.0112 20.3387 20.0112 19.3907 19.4247 18.8042L16.8792 16.2587C16.2927 15.6722 15.3447 15.6722 14.7582 16.2587Z" fill="#E4250C"/>
<path id="Vector_10" d="M7.12164 10.743C7.41414 11.0355 7.79814 11.1825 8.18214 11.1825C8.56614 11.1825 8.95014 11.0355 9.24264 10.743C9.82914 10.1565 9.82914 9.20848 9.24264 8.62198L6.69564 6.07498C6.11064 5.48998 5.16114 5.48998 4.57464 6.07498C3.98814 6.65998 3.98814 7.60948 4.57464 8.19598L7.12164 10.743Z" fill="#E4250C"/>
<path id="Vector_11" d="M7.12164 16.2569L4.57464 18.8039C3.98814 19.3904 3.98814 20.3384 4.57464 20.9249C4.86714 21.2174 5.25114 21.3644 5.63514 21.3644C6.01914 21.3644 6.40314 21.2174 6.69564 20.9249L9.24114 18.3794C9.82764 17.7929 9.82764 16.8449 9.24114 16.2584C8.65464 15.6719 7.70664 15.6719 7.12164 16.2569Z" fill="#E4250C"/>
<path id="Vector_12" d="M15.8178 11.1826C16.2018 11.1826 16.5858 11.0356 16.8783 10.7431L19.4238 8.19759C20.0103 7.61109 20.0103 6.66309 19.4238 6.07659C18.8373 5.49009 17.8893 5.49009 17.3028 6.07659L14.7573 8.62209C14.1708 9.20859 14.1708 10.1566 14.7573 10.7431C15.0513 11.0356 15.4353 11.1826 15.8178 11.1826Z" fill="#E4250C"/>
</g>
</g>
</g>
</g>
<defs>
<clipPath id="clip0_157_169">
<rect width="90" height="90" fill="white"/>
</clipPath>
</defs>
</svg>
