<svg width="67" height="67" viewBox="0 0 67 67" fill="none" xmlns="http://www.w3.org/2000/svg">
<g id="celebration-svgrepo-com 1" clip-path="url(#clip0_157_185)">
<g id="Group">
<g id="Group_2">
<path id="Vector" d="M64.3273 60.0223C63.9529 58.9862 62.8097 58.4493 61.7732 58.8237L57.6907 60.2983L50.9962 41.7639C55.9304 38.9698 58.2905 32.9337 56.301 27.4249L46.8714 1.31788C46.497 0.281787 45.3538 -0.255321 44.3173 0.119302L33.5002 4.02625L22.6829 0.119302C21.6463 -0.2551 20.5029 0.281565 20.1288 1.31788L10.6991 27.4249C8.70962 32.9335 11.0697 38.9698 16.0039 41.7637L9.30946 60.298L5.22695 58.8235C4.19086 58.4493 3.04704 58.9858 2.67286 60.0221C2.29868 61.0584 2.83512 62.202 3.87144 62.5762L15.7891 66.8808C16.013 66.9617 16.2418 67 16.4668 67C17.2834 67 18.0499 66.4946 18.3432 65.6822C18.7174 64.6459 18.1809 63.5023 17.1446 63.1281L13.0621 61.6536L19.7553 43.1228C20.4522 43.2494 21.1551 43.3139 21.8569 43.3139C23.5742 43.3139 25.2853 42.9357 26.886 42.1844C29.7526 40.8391 31.9239 38.4579 32.9996 35.4796L33.4999 34.0946L34.0003 35.4796C35.076 38.4579 37.2473 40.8391 40.1139 42.1844C41.7148 42.9357 43.4255 43.3139 45.143 43.3139C45.8448 43.3139 46.5477 43.2494 47.2446 43.1228L53.9378 61.6536L49.8553 63.1281C48.819 63.5023 48.2823 64.6459 48.6567 65.6822C48.9502 66.4946 49.7165 67 50.5331 67C50.7581 67 50.9869 66.9617 51.2108 66.8808L63.1285 62.5762C64.165 62.202 64.7017 61.0586 64.3273 60.0223ZM42.359 7.84741C42.1343 7.36838 41.7284 6.99841 41.2307 6.81864L39.3729 6.14764L43.7963 4.54984L48.1579 16.6251L38.5574 20.0927L42.4293 9.37273C42.6091 8.87508 42.5838 8.32644 42.359 7.84741ZM29.247 34.1241C28.5332 36.1 27.0928 37.6799 25.1911 38.5723C23.2893 39.4648 21.1538 39.5636 19.1778 38.8496C15.0988 37.3764 12.979 32.8592 14.4522 28.7802L17.4871 20.378L32.2821 25.7218L29.247 34.1241ZM33.6374 21.9692L18.8422 16.6251L23.2038 4.54984L37.999 9.89365L33.6374 21.9692ZM47.8225 38.8498C45.8466 39.5634 43.7108 39.465 41.8091 38.5723C39.9071 37.6799 38.4667 36.1 37.7531 34.1241L35.6213 28.2218L36.7951 24.9719L49.5134 20.3782L52.5481 28.7805C54.0213 32.8594 51.9015 37.3766 47.8225 38.8498Z" fill="#E4250C"/>
</g>
</g>
</g>
<defs>
<clipPath id="clip0_157_185">
<rect width="67" height="67" fill="white"/>
</clipPath>
</defs>
</svg>
