<svg width="85" height="85" viewBox="0 0 85 85" fill="none" xmlns="http://www.w3.org/2000/svg">
<g id="book-open-svgrepo-com 1">
<path id="Vector" d="M42.5 36.8332V70.8332M42.5 36.8332C42.5 28.8991 42.5 24.9321 40.9558 21.9016C39.5976 19.236 37.4305 17.0688 34.7649 15.7106C31.7344 14.1665 27.7674 14.1665 19.8333 14.1665H16.2917C14.3082 14.1665 13.3164 14.1665 12.5588 14.5525C11.8924 14.8921 11.3506 15.4339 11.011 16.1003C10.625 16.8579 10.625 17.8497 10.625 19.8332V58.0832C10.625 60.0669 10.625 61.0585 11.011 61.8161C11.3506 62.4826 11.8924 63.0242 12.5588 63.3638C13.3164 63.7498 14.3082 63.7498 16.2917 63.7498H26.7278C28.641 63.7498 29.5976 63.7498 30.5226 63.9149C31.3436 64.0612 32.1445 64.3034 32.9088 64.6374C33.7699 65.0132 34.5659 65.5437 36.1576 66.6051L42.5 70.8332M42.5 36.8332C42.5 28.8991 42.5 24.9321 44.0442 21.9016C45.4024 19.236 47.5695 17.0688 50.235 15.7106C53.2656 14.1665 57.2326 14.1665 65.1667 14.1665H68.7083C70.692 14.1665 71.6837 14.1665 72.4413 14.5525C73.1078 14.8921 73.6493 15.4339 73.989 16.1003C74.375 16.8579 74.375 17.8497 74.375 19.8332V58.0832C74.375 60.0669 74.375 61.0585 73.989 61.8161C73.6493 62.4826 73.1078 63.0242 72.4413 63.3638C71.6837 63.7498 70.692 63.7498 68.7083 63.7498H58.2721C56.3589 63.7498 55.4023 63.7498 54.4776 63.9149C53.6563 64.0612 52.8555 64.3034 52.0912 64.6374C51.2302 65.0132 50.434 65.5437 48.8424 66.6051L42.5 70.8332" stroke="#E4250C" stroke-width="4.5" stroke-linecap="round" stroke-linejoin="round"/>
</g>
</svg>
