<svg width="50" height="50" viewBox="0 0 50 50" fill="current" stroke="current" xmlns="http://www.w3.org/2000/svg">
<path fill-rule="evenodd" clip-rule="evenodd" d="M12.5 4.16666C7.89764 4.16666 4.16669 7.89762 4.16669 12.5V37.5C4.16669 42.1023 7.89764 45.8333 12.5 45.8333H37.5C42.1023 45.8333 45.8333 42.1023 45.8333 37.5V12.5C45.8333 7.89762 42.1023 4.16666 37.5 4.16666H12.5ZM8.33335 12.5C8.33335 10.1988 10.1988 8.33333 12.5 8.33333H37.5C39.8013 8.33333 41.6667 10.1988 41.6667 12.5V37.5C41.6667 39.8012 39.8013 41.6667 37.5 41.6667H12.5C10.1988 41.6667 8.33335 39.8012 8.33335 37.5V12.5ZM18.75 22.9167C18.75 21.766 17.8173 20.8333 16.6667 20.8333C15.5161 20.8333 14.5834 21.766 14.5834 22.9167V35.4167C14.5834 36.5673 15.5161 37.5 16.6667 37.5C17.8173 37.5 18.75 36.5673 18.75 35.4167V22.9167ZM19.7917 15.625C19.7917 17.3509 18.3926 18.75 16.6667 18.75C14.9408 18.75 13.5417 17.3509 13.5417 15.625C13.5417 13.8991 14.9408 12.5 16.6667 12.5C18.3926 12.5 19.7917 13.8991 19.7917 15.625ZM25 20.8333C25.7073 20.8333 26.3323 21.1858 26.709 21.7248C27.7769 21.1462 28.9658 20.8333 30.2083 20.8333C34.7071 20.8333 37.5 24.8454 37.5 28.2737V28.2896V28.3052V28.321V28.3369V28.3527V28.3687V28.3846V28.4006V28.4167V28.4327V28.449V28.465V28.4812V28.4975V28.5137V28.53V28.5462V28.5627V28.5792V28.5954V28.6121V28.6285V28.645V28.6617V28.6781V28.6948V28.7115V28.7283V28.745V28.7619V28.7785V28.7954V28.8123V28.8292V28.8462V28.8631V28.8802V28.8971V28.9142V28.9312V28.9485V28.9656V28.9827V29V29.0173V29.0344V29.0517V29.0692V29.0865V29.1037V29.1212V29.1387V29.156V29.1735V29.191V29.2085V29.2262V29.2437V29.2615V29.279V29.2967V29.3144V29.3321V29.3498V29.3675V29.3852V29.4031V29.4208V29.4387V29.4567V29.4746V29.4923V29.5104V29.5283V29.5462V29.5642V29.5823V29.6002V29.6183V29.6362V29.6544V29.6725V29.6906V29.7087V29.7269V29.745V29.7633V29.7815V29.7998V29.8179V29.8362V29.8544V29.8727V29.891V29.9094V29.9277V29.946V29.9644V29.9827V30.001V30.0194V30.0379V30.0562V30.0748V30.0931V30.1117V30.13V30.1485V30.1671V30.1856V30.204V30.2225V30.241V30.2596V30.2781V30.2967V30.3152V30.3337V30.3525V30.371V30.3896V30.4081V30.4269V30.4454V30.464V30.4827V30.5012V30.52V30.5385V30.5571V30.5758V30.5946V30.6131V30.6319V30.6504V30.6692V30.6879V30.7065V30.7252V30.7437V30.7625V30.7812V30.7998V30.8185V30.8373V30.8558V30.8746V30.8933V30.9121V30.9306V30.9494V30.9681V30.9867V31.0054V31.0242V31.0427V31.0615V31.08V31.0987V31.1173V31.136V31.1548V31.1733V31.1921V31.2106V31.2292V31.2479V31.2665V31.2852V31.3037V31.3223V31.3408V31.3596V31.3781V31.3967V31.4152V31.4337V31.4523V31.4708V31.4894V31.5079V31.5265V31.545V31.5633V31.5819V31.6004V31.6187V31.6373V31.6556V31.6742V31.6925V31.711V31.7294V31.7477V31.766V31.7844V31.8027V31.821V31.8394V31.8577V31.876V31.8942V31.9125V31.9306V31.949V31.9671V31.9852V32.0033V32.0215V32.0396V32.0577V32.0758V32.094V32.1121V32.13V32.1481V32.166V32.184V32.2021V32.22V32.2379V32.2556V32.2735V32.2915V32.3094V32.3271V32.3448V32.3627V32.3804V32.3981V32.4158V32.4335V32.451V32.4687V32.4862V32.504V32.5215V32.539V32.5565V32.574V32.5915V32.6087V32.6262V32.6435V32.6608V32.6781V32.6954V32.7127V32.73V32.7471V32.7644V32.7815V32.7985V32.8156V32.8327V32.8498V32.8667V32.8837V32.9006V32.9175V32.9344V32.9512V32.9679V32.9848V33.0015V33.0181V33.0348V33.0515V33.0681V33.0846V33.101V33.1177V33.1342V33.1504V33.1669V33.1833V33.1996V33.2158V33.2321V33.2483V33.2644V33.2806V33.2967V33.3127V33.3287V33.3448V33.3606V33.3767V33.3925V33.4083V33.424V33.4398V33.4554V33.471V33.4867V33.5023V33.5179V33.5333V33.5487V33.5642V33.5796V33.5948V33.6102V33.6254V33.6406V33.6556V33.6708V33.6858V33.7008V33.7158V33.7308V33.7456V33.7604V33.7752V33.79V33.8046V33.8192V33.8337V33.8483V33.8629V33.8773V33.8917V33.906V33.9204V33.9346V33.9487V33.9629V33.9771V33.991V34.005V34.019V34.0329V34.0469V34.0606V34.0744V34.0879V34.1017V34.1152V34.1287V34.1421V34.1556V34.169V34.1823V34.1954V34.2087V34.2219V34.235V34.2479V34.2608V34.2737V34.2867V34.2996V34.3123V34.325V34.3375V34.3502V34.3627V34.375V34.3875V34.3998V34.4121V34.4244V34.4364V34.4485V34.4606V34.4725V34.4844V34.4962V34.5081V34.5198V34.5315V34.5431V34.5546V34.566V34.5775V34.5887V34.6002V34.6112V34.6225V34.6335V34.6446V34.6556V34.6665V34.6773V34.6881V34.6987V34.7094V34.72V34.7304V34.7408V34.7512V34.7614V34.7717V34.7819V34.7919V34.8019V34.8119V34.8217V34.8315V34.8412V34.8508V34.8604V34.87V34.8794V34.8887V34.8981V34.9073V34.9164V34.9256V34.9346V34.9435V34.9523V34.961V34.9698V34.9785V34.9871V34.9954V35.004V35.0123V35.0204V35.0287V35.0369V35.0448V35.0527V35.0606V35.0683V35.076V35.0837V35.0912V35.0987V35.1062V35.1135V35.1208V35.1279V35.135V35.1421V35.149V35.1558V35.1625V35.1692V35.1758V35.1823V35.1887V35.195V35.2012V35.2075V35.2135V35.2196V35.2256V35.2315V35.2371V35.2427V35.2483V35.254V35.2594V35.2646V35.2698V35.275V35.28V35.285V35.29V35.2948V35.2996V35.3042V35.3085V35.3131V35.3175V35.3217V35.3258V35.33V35.334V35.3379V35.3417V35.3454V35.3492V35.3527V35.356V35.3594V35.3627V35.3658V35.369V35.3719V35.3748V35.3777V35.3804V35.3829V35.3854V35.3879V35.3902V35.3925V35.3946V35.3985V35.4021V35.4054V35.4081V35.4106V35.4133V35.4158C37.5 36.5664 36.5673 37.5 35.4167 37.5C34.2661 37.5 33.3333 36.5673 33.3333 35.4167V35.4142V35.4117V35.4094V35.4069V35.4037V35.4004V35.3967V35.3925V35.3902V35.3879V35.3854V35.3829V35.3804V35.3777V35.3748V35.3719V35.369V35.3658V35.3627V35.3594V35.356V35.3527V35.3492V35.3454V35.3417V35.3379V35.334V35.33V35.3258V35.3217V35.3175V35.3131V35.3085V35.3042V35.2996V35.2948V35.29V35.285V35.28V35.275V35.2698V35.2646V35.2594V35.254V35.2483V35.2427V35.2371V35.2315V35.2256V35.2196V35.2135V35.2075V35.2012V35.195V35.1887V35.1823V35.1758V35.1692V35.1625V35.1558V35.149V35.1421V35.135V35.1279V35.1208V35.1135V35.1062V35.0987V35.0912V35.0837V35.076V35.0683V35.0606V35.0527V35.0448V35.0369V35.0287V35.0204V35.0123V35.004V34.9954V34.9871V34.9785V34.9698V34.961V34.9523V34.9435V34.9346V34.9256V34.9164V34.9073V34.8981V34.8887V34.8794V34.87V34.8604V34.8508V34.8412V34.8315V34.8217V34.8119V34.8019V34.7919V34.7819V34.7717V34.7614V34.7512V34.7408V34.7304V34.72V34.7094V34.6987V34.6881V34.6773V34.6665V34.6556V34.6446V34.6335V34.6225V34.6112V34.6002V34.5887V34.5775V34.566V34.5546V34.5431V34.5315V34.5198V34.5081V34.4962V34.4844V34.4725V34.4606V34.4485V34.4364V34.4244V34.4121V34.3998V34.3875V34.375V34.3627V34.3502V34.3375V34.325V34.3123V34.2996V34.2867V34.2737V34.2608V34.2479V34.235V34.2219V34.2087V34.1954V34.1823V34.169V34.1556V34.1421V34.1287V34.1152V34.1017V34.0879V34.0744V34.0606V34.0469V34.0329V34.019V34.005V33.991V33.9771V33.9629V33.9487V33.9346V33.9204V33.906V33.8917V33.8773V33.8629V33.8483V33.8337V33.8192V33.8046V33.79V33.7752V33.7604V33.7456V33.7308V33.7158V33.7008V33.6858V33.6708V33.6556V33.6406V33.6254V33.6102V33.5948V33.5796V33.5642V33.5487V33.5333V33.5179V33.5023V33.4867V33.471V33.4554V33.4398V33.424V33.4083V33.3925V33.3767V33.3606V33.3448V33.3287V33.3127V33.2967V33.2806V33.2644V33.2483V33.2321V33.2158V33.1996V33.1833V33.1669V33.1504V33.1342V33.1177V33.101V33.0846V33.0681V33.0515V33.0348V33.0181V33.0015V32.9848V32.9679V32.9512V32.9344V32.9175V32.9006V32.8837V32.8667V32.8498V32.8327V32.8156V32.7985V32.7815V32.7644V32.7471V32.73V32.7127V32.6954V32.6781V32.6608V32.6435V32.6262V32.6087V32.5915V32.574V32.5565V32.539V32.5215V32.504V32.4862V32.4687V32.451V32.4335V32.4158V32.3981V32.3804V32.3627V32.3448V32.3271V32.3094V32.2915V32.2735V32.2556V32.2379V32.22V32.2021V32.184V32.166V32.1481V32.13V32.1121V32.094V32.0758V32.0577V32.0396V32.0215V32.0033V31.9852V31.9671V31.949V31.9306V31.9125V31.8942V31.876V31.8577V31.8394V31.821V31.8027V31.7844V31.766V31.7477V31.7294V31.711V31.6925V31.6742V31.6556V31.6373V31.6187V31.6004V31.5819V31.5633V31.545V31.5265V31.5079V31.4894V31.4708V31.4523V31.4337V31.4152V31.3967V31.3781V31.3596V31.3408V31.3223V31.3037V31.2852V31.2665V31.2479V31.2292V31.2106V31.1921V31.1733V31.1548V31.136V31.1173V31.0987V31.08V31.0615V31.0427V31.0242V31.0054V30.9867V30.9681V30.9494V30.9306V30.9121V30.8933V30.8746V30.8558V30.8373V30.8185V30.7998V30.7812V30.7625V30.7437V30.7252V30.7065V30.6879V30.6692V30.6504V30.6319V30.6131V30.5946V30.5758V30.5571V30.5385V30.52V30.5012V30.4827V30.464V30.4454V30.4269V30.4081V30.3896V30.371V30.3525V30.3337V30.3152V30.2967V30.2781V30.2596V30.241V30.2225V30.204V30.1856V30.1671V30.1485V30.13V30.1117V30.0931V30.0748V30.0562V30.0379V30.0194V30.001V29.9827V29.9644V29.946V29.9277V29.9094V29.891V29.8727V29.8544V29.8362V29.8179V29.7998V29.7815V29.7633V29.745V29.7269V29.7087V29.6906V29.6725V29.6544V29.6362V29.6183V29.6002V29.5823V29.5642V29.5462V29.5283V29.5104V29.4923V29.4746V29.4567V29.4387V29.4208V29.4031V29.3852V29.3675V29.3498V29.3321V29.3144V29.2967V29.279V29.2615V29.2437V29.2262V29.2085V29.191V29.1735V29.156V29.1387V29.1212V29.1037V29.0865V29.0692V29.0517V29.0344V29.0173V29V28.9827V28.9656V28.9485V28.9312V28.9142V28.8971V28.8802V28.8631V28.8462V28.8292V28.8123V28.7954V28.7785V28.7619V28.745V28.7283V28.7115V28.6948V28.6781V28.6617V28.645V28.6285V28.6121V28.5954V28.5792V28.5627V28.5462V28.53V28.5137V28.4975V28.4812V28.465V28.449V28.4327V28.4167V28.4006V28.3846V28.3687V28.3527V28.3369V28.321V28.3052V28.2896V28.2737C33.3333 26.6733 31.9596 25 30.2083 25C29.1165 25 27.9113 25.5935 27.0834 27.0065V27.0121V27.0335V27.055V27.0765V27.0981V27.1196V27.1412V27.1629V27.1848V27.2065V27.2281V27.25V27.2719V27.2937V27.3156V27.3375V27.3596V27.3817V27.4035V27.4256V27.4477V27.4698V27.4921V27.5142V27.5365V27.5587V27.5808V27.6033V27.6256V27.6479V27.6702V27.6927V27.7152V27.7375V27.76V27.7825V27.805V27.8277V27.8502V27.8729V27.8954V27.9181V27.9408V27.9635V27.9862V28.009V28.0317V28.0546V28.0773V28.1002V28.1229V28.1458V28.1687V28.1917V28.2146V28.2375V28.2604V28.2835V28.3065V28.3294V28.3525V28.3756V28.3985V28.4217V28.4448V28.4679V28.491V28.5142V28.5373V28.5604V28.5837V28.6069V28.63V28.6533V28.6765V28.6998V28.7231V28.7462V28.7696V28.7929V28.8162V28.8394V28.8627V28.886V28.9094V28.9329V28.9562V28.9796V29.0029V29.0262V29.0496V29.0731V29.0965V29.1198V29.1433V29.1667V29.1902V29.2135V29.2371V29.2604V29.2837V29.3073V29.3308V29.3542V29.3777V29.401V29.4246V29.4479V29.4715V29.495V29.5183V29.5419V29.5652V29.5887V29.6123V29.6356V29.6592V29.6825V29.706V29.7294V29.7529V29.7762V29.7998V29.8231V29.8467V29.87V29.8935V29.9169V29.9404V29.9637V29.9871V30.0104V30.034V30.0573V30.0806V30.104V30.1273V30.1506V30.174V30.1973V30.2206V30.244V30.2673V30.2906V30.3137V30.3371V30.3604V30.3835V30.4069V30.43V30.4533V30.4765V30.4996V30.5227V30.5458V30.5692V30.5923V30.6152V30.6383V30.6615V30.6846V30.7075V30.7306V30.7535V30.7767V30.7996V30.8225V30.8454V30.8683V30.8912V30.9142V30.9371V30.9598V30.9827V31.0054V31.0283V31.051V31.0737V31.0965V31.1192V31.1419V31.1644V31.1871V31.2096V31.2323V31.2548V31.2773V31.2998V31.3223V31.3448V31.3671V31.3896V31.4119V31.4342V31.4565V31.4787V31.501V31.5233V31.5456V31.5677V31.5898V31.6119V31.634V31.656V31.6781V31.7002V31.7221V31.744V31.7658V31.7877V31.8096V31.8315V31.8531V31.8748V31.8967V31.9183V31.9398V31.9615V31.9831V32.0046V32.026V32.0475V32.069V32.0902V32.1117V32.1329V32.1542V32.1754V32.1967V32.2177V32.239V32.26V32.281V32.3019V32.3229V32.3437V32.3646V32.3854V32.4062V32.4271V32.4477V32.4683V32.489V32.5096V32.53V32.5506V32.571V32.5915V32.6117V32.6321V32.6523V32.6725V32.6927V32.7127V32.7329V32.7529V32.7729V32.7927V32.8127V32.8325V32.8523V32.8721V32.8917V32.9112V32.9308V32.9504V32.97V32.9894V33.0087V33.0279V33.0473V33.0665V33.0856V33.1048V33.1237V33.1429V33.1619V33.1806V33.1996V33.2183V33.2371V33.2556V33.2744V33.2929V33.3115V33.3298V33.3481V33.3665V33.3848V33.4029V33.421V33.4392V33.4573V33.4752V33.4931V33.511V33.5287V33.5465V33.5642V33.5819V33.5994V33.6169V33.6342V33.6515V33.6687V33.686V33.7033V33.7204V33.7373V33.7544V33.7712V33.7881V33.8048V33.8215V33.8381V33.8548V33.8712V33.8877V33.9039V33.9202V33.9364V33.9527V33.9687V33.9848V34.0006V34.0167V34.0325V34.0481V34.0637V34.0794V34.095V34.1104V34.1256V34.141V34.1562V34.1715V34.1865V34.2015V34.2165V34.2312V34.246V34.2606V34.2754V34.2898V34.3044V34.3187V34.3331V34.3473V34.3615V34.3754V34.3896V34.4035V34.4173V34.431V34.4448V34.4583V34.4719V34.4852V34.4985V34.5119V34.5252V34.5381V34.5512V34.5642V34.5771V34.5898V34.6025V34.6152V34.6277V34.64V34.6525V34.6648V34.6769V34.6889V34.701V34.7129V34.7248V34.7365V34.7481V34.7598V34.7712V34.7825V34.7939V34.805V34.8162V34.8273V34.8381V34.849V34.8598V34.8704V34.881V34.8915V34.9019V34.9121V34.9223V34.9325V34.9425V34.9525V34.9623V34.9719V34.9817V34.991V35.0006V35.01V35.0192V35.0283V35.0373V35.0462V35.0552V35.064V35.0725V35.0812V35.0896V35.0979V35.1062V35.1144V35.1225V35.1304V35.1383V35.146V35.1537V35.1612V35.1687V35.176V35.1833V35.1904V35.1975V35.2044V35.2112V35.2179V35.2246V35.231V35.2375V35.2437V35.25V35.256V35.2621V35.2679V35.2735V35.2794V35.2848V35.2902V35.2956V35.3008V35.3058V35.3108V35.3158V35.3206V35.3252V35.3298V35.3342V35.3385V35.3427V35.3469V35.3508V35.3548V35.3585V35.3621V35.3656V35.369V35.3723V35.3756V35.3785V35.3815V35.3844V35.3871V35.3898V35.3923V35.3946V35.3969V35.399V35.4029V35.4062V35.4092V35.4117V35.4144V35.4165C27.0834 36.5671 26.1506 37.5 25 37.5C23.8494 37.5 22.9167 36.5673 22.9167 35.4167V35.4144V35.4117V35.4092V35.4062V35.4029V35.399V35.3969V35.3946V35.3923V35.3898V35.3871V35.3844V35.3815V35.3785V35.3756V35.3723V35.369V35.3656V35.3621V35.3585V35.3548V35.3508V35.3469V35.3427V35.3385V35.3342V35.3298V35.3252V35.3206V35.3158V35.3108V35.3058V35.3008V35.2956V35.2902V35.2848V35.2794V35.2735V35.2679V35.2621V35.256V35.25V35.2437V35.2375V35.231V35.2246V35.2179V35.2112V35.2044V35.1975V35.1904V35.1833V35.176V35.1687V35.1612V35.1537V35.146V35.1383V35.1304V35.1225V35.1144V35.1062V35.0979V35.0896V35.0812V35.0725V35.064V35.0552V35.0462V35.0373V35.0283V35.0192V35.01V35.0006V34.991V34.9817V34.9719V34.9623V34.9525V34.9425V34.9325V34.9223V34.9121V34.9019V34.8915V34.881V34.8704V34.8598V34.849V34.8381V34.8273V34.8162V34.805V34.7939V34.7825V34.7712V34.7598V34.7481V34.7365V34.7248V34.7129V34.701V34.6889V34.6769V34.6648V34.6525V34.64V34.6277V34.6152V34.6025V34.5898V34.5771V34.5642V34.5512V34.5381V34.5252V34.5119V34.4985V34.4852V34.4719V34.4583V34.4448V34.431V34.4173V34.4035V34.3896V34.3754V34.3615V34.3473V34.3331V34.3187V34.3044V34.2898V34.2754V34.2606V34.246V34.2312V34.2165V34.2015V34.1865V34.1715V34.1562V34.141V34.1256V34.1104V34.095V34.0794V34.0637V34.0481V34.0325V34.0167V34.0006V33.9848V33.9687V33.9527V33.9364V33.9202V33.9039V33.8877V33.8712V33.8548V33.8381V33.8215V33.8048V33.7881V33.7712V33.7544V33.7373V33.7204V33.7033V33.686V33.6687V33.6515V33.6342V33.6169V33.5994V33.5819V33.5642V33.5465V33.5287V33.511V33.4931V33.4752V33.4573V33.4392V33.421V33.4029V33.3848V33.3665V33.3481V33.3298V33.3115V33.2929V33.2744V33.2556V33.2371V33.2183V33.1996V33.1806V33.1619V33.1429V33.1237V33.1048V33.0856V33.0665V33.0473V33.0279V33.0087V32.9894V32.97V32.9504V32.9308V32.9112V32.8917V32.8721V32.8523V32.8325V32.8127V32.7927V32.7729V32.7529V32.7329V32.7127V32.6927V32.6725V32.6523V32.6321V32.6117V32.5915V32.571V32.5506V32.53V32.5096V32.489V32.4683V32.4477V32.4271V32.4062V32.3854V32.3646V32.3437V32.3229V32.3019V32.281V32.26V32.239V32.2177V32.1967V32.1754V32.1542V32.1329V32.1117V32.0902V32.069V32.0475V32.026V32.0046V31.9831V31.9615V31.9398V31.9183V31.8967V31.8748V31.8531V31.8315V31.8096V31.7877V31.7658V31.744V31.7221V31.7002V31.6781V31.656V31.634V31.6119V31.5898V31.5677V31.5456V31.5233V31.501V31.4787V31.4565V31.4342V31.4119V31.3896V31.3671V31.3448V31.3223V31.2998V31.2773V31.2548V31.2323V31.2096V31.1871V31.1644V31.1419V31.1192V31.0965V31.0737V31.051V31.0283V31.0054V30.9827V30.9598V30.9371V30.9142V30.8912V30.8683V30.8454V30.8225V30.7996V30.7767V30.7535V30.7306V30.7075V30.6846V30.6615V30.6383V30.6152V30.5923V30.5692V30.5458V30.5227V30.4996V30.4765V30.4533V30.43V30.4069V30.3835V30.3604V30.3371V30.3137V30.2906V30.2673V30.244V30.2206V30.1973V30.174V30.1506V30.1273V30.104V30.0806V30.0573V30.034V30.0104V29.9871V29.9637V29.9404V29.9169V29.8935V29.87V29.8467V29.8231V29.7998V29.7762V29.7529V29.7294V29.706V29.6825V29.6592V29.6356V29.6123V29.5887V29.5652V29.5419V29.5183V29.495V29.4715V29.4479V29.4246V29.401V29.3777V29.3542V29.3308V29.3073V29.2837V29.2604V29.2371V29.2135V29.1902V29.1667V29.1433V29.1198V29.0965V29.0731V29.0496V29.0262V29.0029V28.9796V28.9562V28.9329V28.9094V28.886V28.8627V28.8394V28.8162V28.7929V28.7696V28.7462V28.7231V28.6998V28.6765V28.6533V28.63V28.6069V28.5837V28.5604V28.5373V28.5142V28.491V28.4679V28.4448V28.4217V28.3985V28.3756V28.3525V28.3294V28.3065V28.2835V28.2604V28.2375V28.2146V28.1917V28.1687V28.1458V28.1229V28.1002V28.0773V28.0546V28.0317V28.009V27.9862V27.9635V27.9408V27.9181V27.8954V27.8729V27.8502V27.8277V27.805V27.7825V27.76V27.7375V27.7152V27.6927V27.6702V27.6479V27.6256V27.6033V27.5808V27.5587V27.5365V27.5142V27.4921V27.4698V27.4477V27.4256V27.4035V27.3817V27.3596V27.3375V27.3156V27.2937V27.2719V27.25V27.2281V27.2065V27.1848V27.1629V27.1412V27.1196V27.0981V27.0765V27.055V27.0335V27.0121V26.9906V26.9692V26.9477V26.9265V26.9052V26.884V26.8627V26.8417V26.8204V26.7994V26.7783V26.7573V26.7365V26.7154V26.6946V26.6737V26.6529V26.6321V26.6115V26.5908V26.5702V26.5496V26.529V26.5085V26.4881V26.48V26.4717V26.4635V26.4552V26.4471V26.4387V26.4304V26.4221V26.4137V26.4054V26.3971V26.3887V26.3804V26.3721V26.3635V26.3552V26.3467V26.3381V26.3298V26.3212V26.3127V26.3042V26.2956V26.2871V26.2785V26.27V26.2615V26.2527V26.2442V26.2354V26.2269V26.2181V26.2094V26.2008V26.1921V26.1833V26.1746V26.1658V26.1571V26.1483V26.1396V26.1306V26.1219V26.1131V26.1042V26.0954V26.0865V26.0777V26.0687V26.0598V26.051V26.0421V26.0331V26.0242V26.0152V26.0062V25.9973V25.9883V25.9794V25.9702V25.9612V25.9523V25.9433V25.9342V25.9252V25.916V25.9071V25.8979V25.8887V25.8798V25.8706V25.8615V25.8525V25.8433V25.8342V25.825V25.8158V25.8067V25.7975V25.7883V25.7792V25.77V25.7608V25.7515V25.7423V25.7331V25.724V25.7146V25.7054V25.6962V25.6869V25.6777V25.6683V25.6592V25.6498V25.6406V25.6312V25.6221V25.6127V25.6033V25.5942V25.5848V25.5754V25.5662V25.5569V25.5475V25.5381V25.529V25.5196V25.5102V25.5008V25.4915V25.4821V25.4729V25.4635V25.4542V25.4448V25.4354V25.426V25.4167V25.4073V25.3979V25.3885V25.3792V25.3698V25.3604V25.351V25.3417V25.3323V25.3229V25.3135V25.3042V25.2948V25.2854V25.276V25.2667V25.2573V25.2479V25.2385V25.2292V25.2198V25.2102V25.2008V25.1915V25.1821V25.1727V25.1633V25.154V25.1446V25.1352V25.1258V25.1167V25.1073V25.0979V25.0885V25.0792V25.0698V25.0604V25.051V25.0417V25.0323V25.0231V25.0137V25.0044V24.995V24.9858V24.9765V24.9671V24.9577V24.9485V24.9392V24.9298V24.9206V24.9112V24.9021V24.8927V24.8835V24.8742V24.865V24.8556V24.8465V24.8373V24.8279V24.8187V24.8096V24.8002V24.791V24.7819V24.7727V24.7635V24.7544V24.7452V24.736V24.7269V24.7177V24.7085V24.6994V24.6902V24.6812V24.6721V24.6629V24.6537V24.6448V24.6356V24.6267V24.6175V24.6085V24.5994V24.5904V24.5815V24.5725V24.5633V24.5544V24.5454V24.5365V24.5275V24.5185V24.5096V24.5006V24.4919V24.4829V24.474V24.4652V24.4562V24.4473V24.4385V24.4298V24.4208V24.4121V24.4033V24.3946V24.3858V24.3769V24.3681V24.3596V24.3508V24.3421V24.3333V24.3248V24.316V24.3073V24.2987V24.2902V24.2815V24.2729V24.2644V24.2558V24.2473V24.2387V24.2302V24.2217V24.2131V24.2048V24.1962V24.1877V24.1794V24.171V24.1625V24.1542V24.1458V24.1375V24.1292V24.1208V24.1125V24.1042V24.096V24.0877V24.0796V24.0712V24.0631V24.055V24.0467V24.0385V24.0304V24.0225V24.0144V24.0062V23.9981V23.9902V23.9821V23.9742V23.9662V23.9583V23.9504V23.9425V23.9346V23.9267V23.9187V23.911V23.9031V23.8954V23.8877V23.8798V23.8721V23.8644V23.8567V23.8492V23.8415V23.8337V23.8262V23.8185V23.811V23.8035V23.796V23.7885V23.781V23.7735V23.7662V23.7587V23.7515V23.744V23.7367V23.7294V23.7221V23.7148V23.7077V23.7004V23.6933V23.686V23.679V23.6719V23.6648V23.6577V23.6506V23.6435V23.6367V23.6296V23.6227V23.6158V23.609V23.6021V23.5952V23.5883V23.5817V23.5748V23.5681V23.5615V23.5548V23.5481V23.5415V23.5348V23.5283V23.5217V23.5152V23.5087V23.5023V23.4958V23.4894V23.4831V23.4767V23.4704V23.4642V23.4579V23.4517V23.4454V23.4392V23.4331V23.4269V23.4208V23.4148V23.4087V23.4027V23.3969V23.3908V23.385V23.379V23.3731V23.3673V23.3617V23.3558V23.3502V23.3444V23.3387V23.3331V23.3275V23.3219V23.3165V23.3108V23.3054V23.3V23.2946V23.2892V23.284V23.2785V23.2733V23.2681V23.2629V23.2577V23.2525V23.2475V23.2423V23.2373V23.2323V23.2273V23.2223V23.2175V23.2125V23.2077V23.2029V23.1981V23.1935V23.1887V23.1842V23.1794V23.1748V23.1702V23.1658V23.1612V23.1569V23.1525V23.1481V23.1437V23.1394V23.1352V23.1308V23.1267V23.1225V23.1185V23.1144V23.1104V23.1062V23.1023V23.0985V23.0946V23.0906V23.0869V23.0831V23.0794V23.0756V23.0721V23.0683V23.0648V23.0612V23.0577V23.0544V23.0508V23.0475V23.0442V23.0408V23.0375V23.0344V23.0312V23.0281V23.025V23.0219V23.0187V23.0158V23.0129V23.01V23.0071V23.0044V23.0017V22.9987V22.9962V22.9935V22.9908V22.9883V22.9858V22.9833V22.9808V22.9785V22.9762V22.974V22.9717V22.9694V22.9673V22.965V22.9629V22.959V22.9552V22.9515V22.9479V22.9446V22.9415V22.9385V22.9356V22.9331V22.9306V22.9275V22.9254V22.9229V22.9208V22.9183C22.9167 21.7677 23.8494 20.8333 25 20.8333Z" fill="current"/>
</svg>
