<svg width="36" height="36" viewBox="0 0 36 36" fill="none" xmlns="http://www.w3.org/2000/svg">
<path d="M4.25273 25.2107C3.6627 25.2107 3.36768 25.0468 3.36768 24.719C3.36768 24.3819 3.56436 24.2133 3.95771 24.2133C4.54775 24.2133 4.96452 24.1243 5.20803 23.9464C5.68567 23.5998 5.96664 23.0051 6.05093 22.1622C6.06966 21.9655 6.0884 21.6658 6.10713 21.2631C6.13522 20.8604 6.16332 20.3921 6.19142 19.8583C6.22888 19.3151 6.26166 18.7203 6.28976 18.0741C6.31785 17.4185 6.34595 16.7489 6.37405 16.0652C6.41151 15.3721 6.44429 14.6791 6.47239 13.986C6.50048 13.293 6.5239 12.6327 6.54263 12.0052C6.58946 10.4411 6.61287 9.45305 6.61287 9.04096C6.61287 8.62887 6.58009 8.30576 6.51453 8.07161C6.45834 7.83747 6.37405 7.64548 6.26166 7.49563C6.05562 7.23339 5.72314 7.06949 5.26422 7.00393C4.45877 6.89154 4.05605 6.71828 4.05605 6.48414C4.05605 6.32492 4.11225 6.19849 4.22463 6.10483C4.34639 6.00181 4.50092 5.9503 4.68823 5.9503L6.89384 6.14698L8.1301 6.09078C8.35488 6.09078 8.54219 6.18912 8.69204 6.3858C8.84189 6.57311 9.01047 6.85408 9.19779 7.22871L15.9972 21.3193C16.1565 20.954 16.3672 20.4717 16.6294 19.8723C16.8917 19.2729 17.1773 18.608 17.4864 17.8774C17.8048 17.1469 18.142 16.3743 18.4979 15.5594C18.8538 14.7446 19.205 13.9345 19.5515 13.1291C19.898 12.3236 20.2305 11.5509 20.5489 10.8111C20.8674 10.0712 21.1483 9.41558 21.3918 8.84428C21.6353 8.26361 21.8367 7.79065 21.9959 7.42539C22.1551 7.06013 22.2628 6.80257 22.319 6.65272C22.3846 6.49351 22.5064 6.34834 22.6843 6.21722C22.8622 6.0861 23.073 6.02054 23.3165 6.02054L24.637 6.07673L26.3228 5.9503C27.0253 5.9503 27.3765 6.12356 27.3765 6.47009C27.3765 6.63867 27.222 6.75574 26.9129 6.8213C26.6038 6.8775 26.3416 6.92901 26.1262 6.97584C25.9108 7.02266 25.7094 7.09291 25.5221 7.18656C25.0913 7.4207 24.8759 7.80938 24.8759 8.35258L25.5923 22.106C25.6673 23.3142 26.1215 23.9979 26.955 24.1571C27.1892 24.1946 27.4186 24.2133 27.6434 24.2133C28.0461 24.2133 28.2475 24.3819 28.2475 24.719C28.2475 25.0468 27.9525 25.2107 27.3624 25.2107C27.1283 25.2107 26.9269 25.1967 26.7584 25.1686C26.5898 25.1499 26.4212 25.1311 26.2526 25.1124C25.7469 25.0375 25.2879 25 24.8759 25L21.8835 25.2107C21.2748 25.2107 20.9704 25.0375 20.9704 24.6909C20.9704 24.4006 21.1905 24.2554 21.6307 24.2554C22.0709 24.2554 22.3893 24.2227 22.586 24.1571C22.792 24.0822 22.9419 23.9698 23.0355 23.8199C23.1666 23.5952 23.2322 23.066 23.2322 22.2325V20.9119C23.2322 20.275 23.1854 18.9826 23.0917 17.0345C22.998 15.0865 22.9325 13.6957 22.895 12.8621C22.8201 11.1014 22.7499 9.76679 22.6843 8.85833L16.0394 24.0869C15.7959 24.6394 15.5758 24.9157 15.3791 24.9157C15.248 24.9157 15.1356 24.8501 15.0419 24.719C14.9577 24.5785 14.8406 24.3585 14.6907 24.0588L7.89128 10.0524C7.53539 14.8196 7.35744 19.1793 7.35744 23.1316C7.35744 23.8995 7.98025 24.2835 9.22588 24.2835C9.56305 24.2835 9.73163 24.4193 9.73163 24.6909C9.73163 25.0375 9.42724 25.2107 8.81848 25.2107L6.54263 25C6.06498 25 5.61543 25.0328 5.19398 25.0983C4.77252 25.1733 4.45877 25.2107 4.25273 25.2107ZM23.1058 7.88898L23.1198 7.87494L23.1058 7.88898Z" fill="black"/>
<rect x="20.4" y="4.20001" width="7.8" height="21.6" fill="white"/>
<path fill-rule="evenodd" clip-rule="evenodd" d="M19.462 13.2625L20.0751 15.0726L20.087 15.0441L23.4024 24.8078C23.6366 25.4728 23.8894 25.8053 24.161 25.8053C24.3764 25.8053 24.6012 25.5149 24.8354 24.9343L30.8621 9.11569C31.1899 8.25406 31.5318 7.65466 31.8877 7.31749C32.1125 7.11145 32.4684 7.00843 32.9554 7.00843C33.3487 7.00843 33.5454 6.84453 33.5454 6.51673C33.5454 6.17957 33.2504 6.01099 32.6603 6.01099L30.5531 6.23576C30.0005 6.23576 29.5322 6.1983 29.1482 6.12337C28.7736 6.04845 28.4364 6.01099 28.1367 6.01099C27.528 6.01099 27.2236 6.16552 27.2236 6.47459C27.2236 6.78365 27.425 6.93818 27.8277 6.93818C28.989 6.93818 29.5697 7.32218 29.5697 8.09016C29.5697 8.43669 29.4339 8.99394 29.1623 9.76192L24.8354 21.8295L20.8877 10.2958C20.5131 9.21872 20.3258 8.40391 20.3258 7.85133C20.3258 7.24257 20.8128 6.93818 21.7868 6.93818C22.2926 6.93818 22.5455 6.78365 22.5455 6.47459C22.5455 6.16552 22.2411 6.01099 21.6323 6.01099L18.5136 6.23576C18.0453 6.23576 17.5817 6.1983 17.1228 6.12337C16.9448 6.09528 16.7715 6.07186 16.603 6.05313C16.4344 6.02503 16.219 6.01099 15.9567 6.01099C15.6945 6.01099 15.4885 6.0625 15.3386 6.16552C15.1888 6.25918 15.1138 6.37156 15.1138 6.50268C15.1138 6.83048 15.3667 7.00374 15.8724 7.02248C16.3782 7.03184 16.8418 7.21915 17.2632 7.58441C17.4733 7.77349 17.6913 8.14581 17.917 8.7014L17.9172 8.70134L17.9182 8.70433C17.994 8.89105 18.0707 9.09841 18.1483 9.32642L19.4689 13.2459L19.462 13.2625Z" fill="black"/>
<path fill-rule="evenodd" clip-rule="evenodd" d="M22.6808 22.8C23.1991 23.7927 23.6006 24.3949 23.8852 24.6067C23.267 26.2644 22.7098 27.5475 22.2134 28.4559C21.9886 28.8587 21.7826 29.1724 21.5953 29.3972C21.408 29.622 21.2347 29.7858 21.0755 29.8889C20.9163 30.0013 20.7664 30.0668 20.6259 30.0855C20.4948 30.1043 20.3684 30.1136 20.2466 30.1136C20.1249 30.1136 19.9891 30.0668 19.8392 29.9732C19.6894 29.8889 19.5208 29.7905 19.3335 29.6781C19.1555 29.5751 18.9682 29.4768 18.7715 29.3831C18.5749 29.2988 18.3454 29.2567 18.0832 29.2567C17.8303 29.2567 17.5493 29.4019 17.2403 29.6922C17.0529 29.8608 16.9593 30.0762 16.9593 30.3384C16.9593 30.713 17.2403 31.0783 17.8022 31.4342C18.1394 31.6402 18.6872 31.7433 19.4459 31.7433C20.5416 31.7433 21.4876 31.2375 22.2837 30.226C23.0057 29.3276 24.1305 26.8523 25.658 22.8H22.6808Z" fill="black"/>
</svg>
