<svg width="50" height="50" viewBox="0 0 50 50" fill="current" stroke="current" xmlns="http://www.w3.org/2000/svg">
<g clip-path="url(#clip0_69_143)">
<path fill-rule="evenodd" clip-rule="evenodd" d="M28.3038 4.16666C29.286 4.16666 30.2325 4.51351 30.9795 5.1394L31.25 5.38706L40.4463 14.5833C41.1409 15.2779 41.5649 16.1925 41.6505 17.1632L41.6667 17.5296V41.6667C41.6667 43.8633 39.967 45.6628 37.811 45.8219L37.5 45.8333H12.5C10.3034 45.8333 8.50383 44.1336 8.34477 41.9776L8.33334 41.6667V8.33333C8.33334 6.13674 10.0331 4.33715 12.189 4.17809L12.5 4.16666H28.3038ZM25 8.33333H12.5V41.6667H37.5V20.8333H28.125C26.5007 20.8333 25.1657 19.594 25.0143 18.0093L25 17.7083V8.33333ZM27.0585 24.6833C27.5581 27.856 29.2177 30.7304 31.7154 32.7494C33.5635 34.2431 31.8733 37.1694 29.6563 36.316C26.6588 35.1623 23.3398 35.1623 20.3425 36.316C18.1247 37.1696 16.4356 34.2427 18.2833 32.7492C20.7813 30.7304 22.4406 27.856 22.9402 24.6835C23.3098 22.3348 26.6892 22.3375 27.0585 24.6833ZM24.9975 29.4842L23.5625 31.9742H26.4375L24.9975 29.4842ZM29.1667 9.19627V16.6667H36.6371L29.1667 9.19627Z" fill="current"/>
</g>
<defs>
<clipPath id="clip0_69_143">
<rect width="50" height="50" fill="white"/>
</clipPath>
</defs>
</svg>
